# xmcd
#
# Track frame offsets:
#	150
#	27674
#	51518
#	74868
#	90804
#	114848
#	137559
#	163985
#	185708
#	201368
#	227009
#	260922
#
# Disc length: 3887 seconds
#
# Revision: 1
# Processed by: cddbd v1.5.2PL0 Copyright (c) Steve Scherf et al.
# Submitted via: audiograbber 1.83.01
#
DISCID=b80f2d0c
DTITLE=Antonio Reey - Guitarras flamencas en Granada
DYEAR=1900
DGENRE=Flamenco
TTITLE0=Tarantas
TTITLE1=Bulerías
TTITLE2=Soleá
TTITLE3=Bulerías
TTITLE4=Granadinas
TTITLE5=Alegrías
TTITLE6=Tarantas
TTITLE7=Soleá
TTITLE8=Bulerías
TTITLE9=Tarantas
TTITLE10=Soleá
TTITLE11=Granadinas
EXTD=
EXTT0=
EXTT1=
EXTT2=
EXTT3=
EXTT4=
EXTT5=
EXTT6=
EXTT7=
EXTT8=
EXTT9=
EXTT10=
EXTT11=
PLAYORDER=
